<?xml version="1.0" standalone="no"?>
<!DOCTYPE svg PUBLIC "-//W3C//DTD SVG 20010904//EN"
 "http://www.w3.org/TR/2001/REC-SVG-20010904/DTD/svg10.dtd">
<svg version="1.0" xmlns="http://www.w3.org/2000/svg"
 width="700.000000pt" height="700.000000pt" viewBox="0 0 700.000000 700.000000"
 preserveAspectRatio="xMidYMid meet">
<metadata>
Created by potrace 1.14, written by Peter Selinger 2001-2017
</metadata>
<g transform="translate(0.000000,700.000000) scale(0.100000,-0.100000)"
fill="#000000" stroke="none">
<path d="M3397 6834 c-1 -1 -60 -5 -131 -8 -71 -4 -132 -8 -135 -10 -3 -2 -35
-7 -71 -10 -82 -9 -247 -40 -375 -72 -974 -241 -1809 -940 -2223 -1859 -304
-674 -374 -1396 -208 -2140 34 -153 108 -374 186 -554 301 -701 839 -1280
1525 -1641 346 -182 825 -325 1195 -356 41 -3 86 -8 100 -10 35 -6 428 -6 470
0 19 3 69 8 110 11 41 3 91 9 110 11 65 10 195 33 240 43 25 5 56 12 70 15 57
11 192 50 303 87 1111 371 1956 1320 2196 2465 16 77 32 162 36 189 3 28 8 57
10 65 2 8 7 51 10 95 4 44 9 98 11 120 7 60 7 434 1 480 -3 22 -9 69 -12 105
-44 451 -209 945 -449 1345 -79 131 -103 167 -205 305 -62 84 -74 98 -182 219
-515 581 -1283 986 -2043 1077 -22 3 -50 7 -61 9 -48 9 -469 27 -478 19z m194
-563 c12 -1 20 -19 29 -63 7 -35 19 -88 26 -118 20 -77 18 -91 -8 -86 -15 2
-24 11 -26 27 -6 37 -18 46 -65 47 -39 2 -44 -1 -54 -28 -8 -23 -18 -30 -37
-30 -30 0 -31 -4 38 143 25 55 46 103 46 107 0 5 8 7 18 5 9 -2 24 -4 33 -4z
m386 -54 c29 -29 12 -127 -23 -127 -22 0 -24 -14 -9 -68 12 -47 12 -52 -3 -52
-29 0 -39 13 -52 68 -6 28 -16 52 -20 52 -5 0 -15 3 -24 6 -10 4 -16 1 -16 -7
0 -8 -5 -31 -11 -52 -9 -33 -13 -37 -32 -31 -29 9 -28 7 -18 40 5 16 19 73 31
126 l21 96 72 -19 c40 -11 77 -26 84 -32z m-805 -23 l36 -66 32 66 c29 58 36
66 61 66 l27 0 1 -131 c1 -130 1 -130 -21 -127 -21 3 -23 8 -25 78 -1 41 -2
82 -2 90 -1 8 -15 -12 -32 -45 -16 -33 -33 -63 -37 -67 -4 -4 -25 23 -45 60
l-37 67 2 -93 c2 -50 1 -92 -2 -93 -3 0 -13 -2 -22 -4 -10 -2 -18 0 -19 3 -4
27 -6 249 -2 255 2 4 14 7 26 7 18 0 31 -15 59 -66z m1018 -4 c0 -4 -6 -23
-14 -41 -33 -83 -33 -83 26 -46 82 52 90 56 117 45 24 -8 22 -10 -35 -44 -32
-20 -60 -37 -61 -38 -1 0 7 -37 18 -81 10 -44 18 -83 16 -87 -1 -4 -13 -2 -26
5 -19 9 -28 26 -39 75 -8 36 -19 62 -26 62 -18 0 -43 -30 -51 -62 -7 -29 -20
-34 -43 -19 -11 6 -9 20 8 67 12 32 28 78 35 101 22 67 32 82 55 76 11 -3 20
-9 20 -13z m-1405 -46 c0 -15 -12 -22 -56 -32 -55 -13 -57 -15 -50 -40 8 -28
12 -29 81 -21 29 3 35 1 38 -17 2 -12 -3 -21 -10 -21 -20 -1 -82 -14 -86 -18
-2 -2 -1 -18 3 -35 6 -29 9 -30 43 -24 21 4 47 10 59 15 20 7 33 -4 33 -30 0
-8 -159 -46 -165 -39 -8 7 -57 240 -52 245 8 7 140 41 152 39 6 -2 10 -11 10
-22z m1811 -116 c8 -15 14 -37 14 -50 -1 -36 -35 -102 -65 -126 -34 -27 -70
-28 -127 -3 -79 36 -79 27 -13 155 l60 115 58 -32 c33 -18 65 -44 73 -59z
m-2118 -6 c-18 -8 -34 -15 -36 -17 -2 -1 13 -49 32 -104 31 -92 33 -103 18
-108 -9 -3 -20 -8 -24 -10 -3 -2 -14 21 -24 49 -9 29 -25 76 -36 105 -18 50
-20 52 -45 42 -31 -12 -53 -5 -53 15 0 8 20 21 48 30 26 9 65 23 87 31 36 12
41 12 53 -3 11 -15 9 -19 -20 -30z m-268 -111 c0 -11 -5 -21 -11 -23 -7 -2 3
-34 27 -83 29 -60 44 -80 59 -80 11 0 21 -7 23 -16 4 -22 -98 -65 -110 -47 -4
8 -1 18 8 25 14 10 11 21 -22 92 -30 64 -42 80 -58 78 -39 -4 -28 28 16 50 54
27 68 28 68 4z m2686 -6 c44 -34 52 -78 26 -138 -40 -90 -129 -124 -191 -72
-50 42 -56 90 -20 155 44 78 124 102 185 55z m-2866 -226 c17 -68 30 -127 30
-132 0 -4 -11 -12 -25 -19 -22 -10 -32 -4 -126 77 -94 81 -100 89 -83 102 23
17 23 17 81 -36 26 -25 61 -56 77 -70 l29 -26 -7 25 c-15 51 -27 96 -31 115
-16 70 -16 73 2 83 10 6 19 9 21 7 2 -1 16 -58 32 -126z m3090 106 c10 -13 4
-29 -39 -96 -28 -45 -50 -83 -49 -85 2 -1 38 19 81 47 43 27 80 49 84 49 3 0
14 -7 24 -16 17 -15 15 -20 -32 -99 -27 -46 -49 -86 -49 -89 0 -3 36 20 80 50
76 53 110 62 110 32 0 -10 -177 -133 -213 -147 -4 -2 -17 6 -27 16 -17 19 -17
21 9 64 15 24 39 65 54 91 l28 48 -51 -33 c-28 -17 -63 -40 -78 -49 -47 -30
-53 -31 -73 -11 -19 19 -19 20 48 131 37 62 71 112 74 112 4 0 12 -7 19 -15z
m-1452 -229 c51 -4 100 -9 110 -10 9 -2 40 -7 67 -10 28 -4 104 -21 170 -38
554 -142 1027 -503 1309 -1000 113 -200 213 -479 241 -673 3 -22 8 -45 10 -52
24 -70 24 -556 0 -625 -2 -7 -6 -26 -9 -43 -3 -16 -7 -41 -10 -55 -3 -14 -8
-38 -12 -55 -12 -65 -58 -214 -92 -300 -192 -488 -560 -886 -1032 -1118 -121
-59 -333 -139 -400 -150 -14 -3 -43 -10 -65 -15 -22 -6 -56 -13 -75 -16 -19
-3 -69 -10 -110 -17 -86 -14 -393 -18 -490 -6 -118 13 -134 16 -210 32 -410
86 -773 285 -1070 585 -264 267 -443 584 -539 951 -16 63 -32 139 -36 169 -4
30 -8 57 -10 60 -8 13 -19 197 -18 295 4 275 39 472 125 714 211 587 687 1060
1277 1265 95 33 181 58 241 70 136 27 188 34 280 42 41 3 76 7 77 8 4 3 189
-2 271 -8z m1787 -70 c14 -21 13 -29 -16 -107 -18 -46 -36 -90 -42 -96 -20
-26 5 -11 70 41 63 51 69 54 85 39 10 -9 17 -17 16 -18 -2 -2 -49 -39 -105
-83 l-101 -81 -16 25 c-16 23 -15 29 22 119 40 95 37 105 -13 58 -55 -51 -91
-73 -103 -61 -7 7 -12 17 -11 23 0 7 182 160 196 164 2 1 9 -10 18 -23z
m-3841 -76 c4 -30 10 -58 15 -63 4 -4 36 -16 71 -26 70 -19 80 -30 51 -48 -16
-10 -28 -10 -62 2 -47 17 -73 19 -65 6 3 -4 8 -31 12 -59 5 -44 3 -52 -15 -62
-18 -9 -21 -8 -22 7 0 10 -2 25 -4 33 -1 8 -6 32 -9 54 -7 44 -13 56 -28 56
-5 0 -35 7 -65 16 -55 16 -55 16 -36 36 19 18 22 18 64 4 24 -9 47 -16 51 -16
6 0 4 29 -8 79 -3 14 2 31 12 43 22 24 29 12 38 -62z m-229 -212 c0 -26 3 -30
79 -96 43 -37 50 -40 60 -26 11 14 13 14 25 0 11 -14 8 -22 -20 -55 -38 -44
-64 -49 -64 -11 0 17 -14 38 -45 65 -25 22 -51 46 -58 53 -16 15 -25 15 -38 2
-8 -8 -14 -7 -22 3 -10 11 -5 23 24 56 40 45 59 48 59 9z m4439 -178 c20 -41
32 -79 29 -90 -8 -30 -52 -60 -88 -60 -34 0 -53 16 -79 67 l-16 32 -45 -24
-45 -23 -11 20 c-9 17 -8 23 7 32 19 11 207 113 212 115 1 1 18 -31 36 -69z
m-4414 -120 c23 -18 24 -20 9 -35 -15 -16 -22 -13 -85 34 -38 27 -70 49 -71
47 -2 -2 10 -30 27 -64 16 -33 30 -63 30 -65 0 -6 -59 1 -112 13 -21 4 -38 7
-38 5 0 -2 32 -26 70 -55 73 -54 75 -57 61 -79 -10 -16 -9 -17 -129 71 -84 62
-91 70 -80 88 14 22 34 24 111 11 26 -4 47 -5 47 -2 0 4 -13 33 -29 66 -27 54
-28 61 -14 81 l15 23 81 -60 c45 -33 93 -68 107 -79z m4569 -115 c1 -5 -37
-32 -84 -59 -47 -26 -85 -50 -85 -52 0 -1 8 -1 18 0 9 2 56 7 103 10 84 7 87
7 92 -16 8 -28 2 -33 -93 -93 l-75 -47 50 6 c159 21 165 21 165 -6 0 -21 -5
-24 -37 -25 -35 0 -109 -7 -190 -18 -27 -4 -33 -1 -41 23 -9 26 -6 29 69 78
43 29 83 54 91 58 13 5 -95 -1 -165 -10 -33 -4 -38 -2 -47 22 -8 21 -8 29 2
36 7 5 55 34 106 64 50 31 95 61 99 67 6 10 21 -14 22 -38z m-4919 -85 c13 -8
11 -17 -12 -60 -16 -27 -28 -52 -28 -55 0 -2 14 -11 30 -20 17 -9 30 -11 30
-6 0 5 10 27 23 50 21 36 25 39 42 28 17 -13 17 -16 -8 -58 l-27 -45 30 -17
29 -18 32 55 c26 48 33 54 49 46 17 -9 16 -14 -17 -77 -19 -38 -39 -72 -43
-76 -7 -8 -215 96 -225 114 -6 8 65 149 75 149 3 0 12 -5 20 -10z m-42 -319
c13 -9 24 -26 26 -36 3 -18 10 -20 59 -17 58 4 66 -2 45 -31 -9 -11 -30 -17
-63 -18 -79 -4 -89 -37 -19 -68 40 -18 44 -22 34 -41 -13 -24 -11 -24 -63 -1
-23 11 -73 31 -112 46 -38 15 -72 29 -74 31 -6 5 41 117 57 136 25 30 70 29
110 -1z m5127 -53 c3 -3 7 -18 8 -32 2 -20 -5 -31 -28 -44 -16 -9 -50 -29 -75
-43 -125 -75 -131 -77 -137 -40 -2 13 7 23 28 31 29 12 30 15 23 59 -4 25 -8
48 -10 50 -2 2 -18 4 -36 5 -27 1 -34 6 -36 27 l-3 25 130 -16 c72 -9 133 -19
136 -22z m-4810 -860 c3 -3 8 -50 10 -104 5 -99 13 -186 20 -214 2 -8 7 -35
10 -60 14 -102 73 -313 115 -415 82 -197 166 -347 281 -500 70 -94 85 -112
180 -212 186 -194 456 -381 689 -476 25 -11 59 -25 75 -32 83 -36 286 -94 385
-110 19 -3 42 -7 50 -10 51 -13 183 -20 370 -19 237 1 362 18 560 73 778 219
1379 872 1529 1661 25 133 29 167 37 304 3 61 8 113 10 115 7 7 1075 7 1087
-1 9 -6 4 -239 -7 -308 -3 -14 -10 -65 -16 -115 -9 -72 -31 -187 -55 -295 -17
-79 -52 -198 -84 -292 -358 -1052 -1223 -1849 -2296 -2114 -77 -19 -156 -37
-175 -40 -19 -2 -46 -7 -60 -10 -14 -3 -43 -8 -65 -10 -22 -3 -51 -7 -65 -9
-22 -4 -58 -8 -200 -21 -50 -4 -387 -4 -435 0 -22 2 -76 7 -120 11 -44 3 -87
8 -95 10 -8 2 -35 7 -60 10 -208 27 -506 109 -733 201 -812 330 -1461 979
-1790 1789 -44 107 -113 309 -122 353 -2 12 -6 26 -9 30 -3 5 -8 24 -11 43 -3
19 -13 63 -21 99 -23 97 -25 111 -30 155 -3 22 -6 45 -9 52 -2 6 -7 38 -10 70
-4 32 -8 69 -11 83 -7 44 -17 288 -12 302 5 11 105 13 542 12 294 0 538 -3
541 -6z"/>
<path d="M3547 6178 c-22 -56 -22 -53 14 -56 l31 -2 -7 42 c-10 61 -20 65 -38
16z"/>
<path d="M3860 6209 c0 -2 -4 -19 -9 -36 -9 -31 -8 -33 26 -42 41 -12 59 -6
66 19 7 27 -13 49 -50 56 -18 4 -33 5 -33 3z"/>
<path d="M4450 5983 c-19 -38 -36 -71 -38 -76 -5 -12 62 -37 84 -31 37 10 77
110 56 140 -8 12 -46 34 -59 34 -4 0 -24 -30 -43 -67z"/>
<path d="M4787 5865 c-39 -40 -60 -91 -47 -115 28 -52 82 -45 124 17 32 47 34
87 4 107 -31 22 -51 20 -81 -9z"/>
<path d="M3479 5476 c-2 -2 -53 -6 -114 -9 -414 -21 -866 -208 -1180 -487
-381 -339 -618 -792 -672 -1285 -10 -89 -10 -346 0 -448 21 -218 108 -499 218
-705 219 -412 563 -727 999 -915 155 -67 393 -127 575 -144 133 -13 366 -7
490 12 594 93 1111 439 1420 950 131 216 231 494 260 725 4 30 9 64 12 75 2
11 6 97 8 190 5 278 -31 497 -125 747 -150 399 -431 743 -802 981 -98 64 -277
152 -388 192 -87 31 -274 80 -340 89 -25 4 -72 10 -105 15 -33 5 -100 9 -149
10 -50 1 -93 4 -97 6 -3 3 -8 3 -10 1z m259 -70 c18 -3 52 -8 75 -11 312 -45
676 -211 932 -427 553 -466 804 -1181 661 -1884 -102 -500 -400 -945 -823
-1226 -134 -89 -192 -120 -398 -208 -39 -17 -151 -50 -235 -69 -99 -23 -125
-28 -270 -46 -50 -7 -317 -6 -370 0 -484 60 -878 250 -1197 576 -409 418 -603
966 -550 1554 21 233 111 530 217 720 105 187 181 292 313 431 307 324 757
548 1182 589 39 4 72 9 74 11 6 5 350 -3 389 -10z"/>
<path d="M3390 4994 c-314 -80 -571 -470 -670 -1014 -17 -96 -38 -270 -33
-270 2 0 39 26 81 59 440 334 992 536 1437 525 55 -1 114 -5 130 -8 17 -4 46
-9 65 -12 136 -23 268 -112 313 -213 26 -57 31 -168 12 -242 -19 -71 -20 -69
16 -109 16 -19 44 -54 62 -78 l31 -43 13 25 c35 67 73 208 77 283 12 286 -171
489 -504 559 -119 25 -462 25 -550 0 -8 -3 -32 -7 -53 -11 -185 -27 -492 -136
-734 -261 -79 -40 -143 -69 -143 -65 0 23 86 255 120 323 84 167 189 289 298
344 50 25 68 29 142 29 74 0 92 -4 144 -30 60 -30 139 -100 190 -168 26 -34
32 -37 64 -32 19 3 62 8 96 11 33 3 62 7 64 9 12 11 -112 171 -188 242 -141
132 -321 187 -480 147z"/>
<path d="M2557 4453 c-385 -86 -562 -375 -447 -729 34 -103 118 -251 208 -364
46 -58 190 -201 267 -268 131 -112 362 -262 527 -342 46 -23 86 -45 91 -50 4
-6 5 -8 1 -6 -3 2 -31 -2 -63 -10 -114 -26 -357 -37 -481 -21 -296 39 -449
223 -386 463 20 77 20 76 -2 100 -9 10 -38 45 -63 76 l-47 57 -26 -62 c-84
-200 -80 -391 11 -535 47 -74 106 -132 182 -176 65 -38 181 -81 242 -91 19 -3
59 -9 89 -14 58 -10 340 -7 400 3 19 4 64 11 100 18 36 6 72 12 80 13 97 18
346 98 475 153 l69 30 -44 12 c-25 6 -63 16 -85 22 -97 24 -302 106 -440 174
-253 124 -462 270 -635 444 -122 121 -205 235 -259 352 -49 106 -65 174 -59
257 12 158 117 261 325 314 l85 22 27 81 c16 45 31 86 35 92 10 17 -60 11
-177 -15z"/>
<path d="M4070 4098 c0 -2 9 -44 19 -93 19 -88 22 -111 38 -238 10 -79 10
-481 1 -567 -29 -259 -97 -508 -189 -694 -60 -121 -104 -184 -183 -260 -125
-121 -260 -152 -388 -88 -35 17 -83 49 -108 72 -31 27 -51 38 -65 35 -11 -3
-55 -12 -97 -22 -43 -9 -78 -20 -78 -25 0 -5 40 -48 88 -96 129 -127 258 -185
402 -181 217 7 407 151 564 424 68 119 159 361 180 481 3 13 7 32 10 42 6 19
12 50 26 137 27 169 35 278 33 488 0 97 1 177 4 177 2 0 51 -47 108 -105 105
-106 205 -242 250 -342 135 -294 23 -509 -296 -573 l-57 -11 -31 -89 c-17 -49
-31 -92 -31 -96 0 -9 115 4 184 22 154 40 261 99 347 191 179 191 164 479 -40
793 -19 30 -38 57 -41 60 -3 3 -23 28 -44 55 -98 124 -308 312 -476 424 -71
48 -130 84 -130 79z"/>
<path d="M3473 3563 c-13 -2 -32 -16 -43 -30 -45 -57 -10 -140 63 -150 69 -9
121 74 86 139 -9 16 -71 52 -81 47 -2 -1 -13 -4 -25 -6z"/>
<path d="M5744 5010 c-33 -13 -37 -27 -17 -60 35 -60 98 -24 67 39 -17 33 -18
34 -50 21z"/>
<path d="M943 4352 c-11 -7 -33 -54 -33 -72 0 -7 62 -34 64 -28 1 2 7 13 14
25 17 31 15 53 -5 69 -21 16 -24 16 -40 6z"/>
<path d="M6001 4292 c2 -50 11 -53 64 -22 l50 30 -40 1 c-22 0 -48 2 -57 4
-12 2 -18 -3 -17 -13z"/>
<path d="M1709 1572 c-110 -117 -105 -109 -84 -132 23 -25 29 -25 55 2 15 17
23 19 32 10 8 -8 8 -15 -2 -27 -10 -12 -10 -15 0 -15 8 0 10 -8 6 -23 -8 -33
54 -96 73 -73 7 8 8 17 3 20 -11 6 -9 76 2 77 4 1 18 -8 30 -18 20 -18 23 -18
36 -4 7 9 22 26 33 38 15 17 17 26 9 36 -8 9 -8 17 -2 23 7 7 -8 27 -43 60
-101 95 -86 92 -148 26z m130 -56 l25 -26 -21 -22 c-18 -18 -24 -19 -37 -9
-13 11 -17 10 -22 -3 -6 -15 -9 -15 -30 5 -30 28 -30 28 3 66 30 35 41 33 82
-11z"/>
<path d="M5258 1606 c-16 -23 -16 -24 18 -57 l34 -33 -24 -25 -24 -24 -34 35
c-33 35 -34 36 -56 18 -12 -10 -22 -22 -22 -27 0 -16 68 -75 74 -65 12 19 76
5 97 -22 25 -31 40 -33 64 -6 18 20 18 21 -13 53 -27 28 -31 38 -27 74 3 37
-1 47 -26 73 -36 36 -39 36 -61 6z"/>
<path d="M1902 1348 c-37 -51 -67 -94 -66 -97 1 -3 42 -35 92 -72 75 -56 92
-65 102 -54 9 11 -1 23 -54 61 -36 26 -66 51 -66 55 0 4 8 16 18 28 l17 21 53
-37 c40 -28 55 -34 64 -25 6 6 10 13 7 15 -2 2 -25 19 -51 37 -27 18 -48 37
-48 42 0 5 8 18 19 29 18 20 18 20 63 -15 73 -55 98 -66 98 -42 0 7 -41 43
-90 80 l-90 66 -68 -92z"/>
<path d="M4994 1374 c-41 -32 -59 -53 -58 -68 1 -11 -3 -24 -9 -28 -7 -4 7
-29 34 -65 51 -67 60 -76 73 -63 6 6 14 6 22 -1 14 -12 19 -9 87 41 32 24 46
41 45 55 -1 11 1 25 5 32 11 17 -82 135 -101 128 -8 -3 -20 -1 -27 5 -8 7 -29
-3 -71 -36z m108 -66 c50 -67 50 -71 -3 -108 l-27 -20 -51 67 -51 66 22 16
c13 8 29 21 36 28 7 7 16 13 20 13 4 0 28 -28 54 -62z"/>
<path d="M2247 1226 c-4 -9 -14 -12 -26 -9 -12 3 -21 1 -21 -6 0 -6 -9 -10
-21 -8 -16 1 -29 -13 -59 -66 l-39 -67 26 -17 c25 -17 26 -16 48 11 l22 27 36
-21 c36 -21 48 -52 27 -65 -17 -11 -11 -24 18 -39 28 -14 29 -14 47 22 11 20
30 53 42 72 20 30 21 35 7 43 -9 5 -13 16 -9 28 4 11 2 19 -5 19 -6 0 -10 9
-8 21 4 27 -76 79 -85 55z m37 -42 c13 -5 14 -9 5 -20 -9 -12 -9 -17 3 -27 14
-11 14 -15 -1 -39 l-17 -27 -42 25 c-42 25 -42 25 -27 54 11 21 20 27 35 23
11 -3 20 0 20 6 0 13 3 13 24 5z"/>
<path d="M4697 1177 l-26 -22 58 -95 c32 -52 63 -94 69 -93 6 2 45 23 86 49
50 31 73 51 69 60 -7 18 -15 18 -44 -4 -32 -23 -78 -46 -83 -41 -2 2 -26 41
-53 86 l-50 81 -26 -21z"/>
<path d="M2455 1111 c-8 -14 -84 -205 -82 -207 1 -1 36 -16 77 -32 60 -24 76
-27 78 -16 2 10 11 13 23 9 12 -4 21 -1 25 8 3 8 13 13 22 11 12 -3 22 7 35
38 16 38 16 44 2 54 -9 7 -13 18 -9 28 4 10 1 16 -9 16 -10 0 -13 7 -10 20 4
14 -1 22 -18 29 -13 5 -47 18 -76 30 -29 11 -55 16 -58 12z m89 -61 c17 -6 24
-14 20 -25 -4 -8 0 -17 9 -21 14 -5 14 -10 -1 -50 -10 -27 -23 -44 -32 -44 -9
0 -21 -5 -27 -11 -10 -10 -63 -3 -63 10 -1 14 55 151 62 151 4 0 18 -4 32 -10z"/>
<path d="M4472 1071 c-45 -21 -84 -40 -87 -43 -9 -9 87 -208 100 -208 6 0 20
6 30 14 17 12 18 17 7 41 -7 15 -11 28 -10 29 2 1 17 8 33 15 62 28 80 41 77
56 -2 8 4 18 12 21 21 8 -16 89 -41 89 -10 0 -22 5 -28 12 -7 9 -31 2 -93 -26z
m94 -53 l21 -42 -46 -21 -46 -21 -17 39 c-23 51 -23 52 15 71 46 22 51 21 73
-26z"/>
<path d="M4205 975 c-55 -18 -99 -36 -99 -41 4 -23 65 -214 69 -214 2 0 53 16
114 36 83 26 109 39 104 49 -6 16 -24 14 -108 -16 -54 -19 -60 -17 -70 22 -6
24 -3 27 54 44 35 10 61 24 61 32 0 17 -17 17 -79 -4 -28 -9 -54 -14 -57 -11
-2 3 -6 18 -7 34 -2 26 2 29 68 50 44 14 71 28 73 38 5 21 -6 20 -123 -19z"/>
<path d="M2739 999 c-4 -21 -8 -38 -14 -61 -5 -21 -3 -29 9 -34 9 -3 13 -11 9
-17 -3 -5 2 -16 12 -23 16 -12 16 -16 2 -57 l-15 -45 32 -9 c30 -9 31 -8 47
36 11 33 21 45 33 43 9 -2 16 2 16 8 0 6 10 14 22 19 13 5 26 23 33 49 12 41
12 41 -18 51 -16 6 -31 11 -32 11 -1 0 -8 -21 -15 -47 -7 -27 -14 -49 -15 -51
-2 -2 -46 14 -63 23 -1 1 5 21 13 45 8 24 14 45 12 46 -5 6 -67 17 -68 13z"/>
<path d="M3893 907 c-69 -11 -72 -16 -54 -87 6 -19 12 -53 16 -74 10 -72 16
-87 34 -82 9 3 44 10 79 17 50 9 62 15 62 30 0 11 7 19 15 19 8 0 15 9 15 20
0 11 6 20 14 20 10 0 13 8 11 23 -14 69 -17 77 -36 77 -11 0 -19 7 -19 16 0
10 -5 14 -15 10 -9 -3 -18 1 -21 9 -7 17 -11 17 -101 2z m77 -42 c0 -9 7 -15
17 -13 24 4 40 -82 18 -95 -8 -4 -15 -14 -15 -22 0 -15 -46 -32 -57 -21 -10 9
-34 147 -27 157 9 16 64 11 64 -6z"/>
<path d="M3156 903 c-15 -16 -3 -32 27 -35 25 -2 32 -7 31 -23 -1 -11 -5 -56
-8 -100 l-8 -81 35 -2 c22 -2 34 2 34 10 1 38 16 174 19 180 2 3 18 4 34 2 25
-4 30 -2 30 15 0 16 -7 21 -27 21 -40 1 -136 10 -150 15 -6 2 -14 1 -17 -2z"/>
<path d="M3442 859 c-5 -11 -12 -21 -17 -22 -6 -1 -10 -38 -10 -82 0 -61 3
-79 13 -77 8 1 16 -6 18 -15 4 -16 16 -19 85 -19 56 0 79 4 79 13 0 7 9 17 20
23 17 9 19 20 17 87 -1 63 -5 77 -19 81 -10 2 -18 11 -18 18 0 11 -19 14 -80
14 -72 0 -81 -2 -88 -21z m136 -98 l-3 -85 -43 1 c-24 1 -45 3 -47 5 -2 2 -4
30 -5 63 -3 109 -6 102 50 101 l51 0 -3 -85z"/>
</g>
</svg>
